# Synthetic rolling terrain: 15 x 15 grid, 225 vertices, 392 triangles.
o example_terrain
v 0 0 105.19
v 10 0 107.01
v 20 0 108.631
v 30 0 109.836
v 40 0 110.477
v 50 0 110.507
v 60 0 109.988
v 70 0 109.088
v 80 0 108.056
v 90 0 107.177
v 100 0 106.71
v 110 0 106.823
v 120 0 107.553
v 130 0 108.796
v 140 0 110.331
v 0 10 105.127
v 10 10 106.969
v 20 10 108.68
v 30 10 110.053
v 40 10 110.927
v 50 10 111.215
v 60 10 110.925
v 70 10 110.172
v 80 10 109.171
v 90 10 108.206
v 100 10 107.558
v 110 10 107.434
v 120 10 107.913
v 130 10 108.919
v 140 10 110.252
v 0 20 105.115
v 10 20 106.853
v 20 20 108.581
v 30 20 110.126
v 40 20 111.322
v 50 20 112.026
v 60 20 112.159
v 70 20 111.741
v 80 20 110.916
v 90 20 109.935
v 100 20 109.092
v 110 20 108.637
v 120 20 108.703
v 130 20 109.272
v 140 20 110.193
v 0 30 105.141
v 10 30 106.673
v 20 30 108.357
v 30 30 110.075
v 40 30 111.658
v 50 30 112.9
v 60 30 113.607
v 70 30 113.673
v 80 30 113.139
v 90 30 112.201
v 100 30 111.155
v 110 30 110.297
v 120 30 109.826
v 130 30 109.802
v 140 30 110.148
v 0 40 105.174
v 10 40 106.426
v 20 40 108.01
v 30 40 109.877
v 40 40 111.859
v 50 40 113.685
v 60 40 115.039
v 70 40 115.672
v 80 40 115.504
v 90 40 114.663
v 100 40 113.436
v 110 40 112.158
v 120 40 111.102
v 130 40 110.411
v 140 40 110.095
v 0 50 105.168
v 10 50 106.094
v 20 50 107.521
v 30 50 109.471
v 40 50 111.789
v 50 50 114.147
v 60 50 116.117
v 70 50 117.317
v 80 50 117.547
v 90 50 116.859
v 100 50 115.517
v 110 50 113.883
v 120 50 112.291
v 130 50 110.963
v 140 50 110.001
v 0 60 105.079
v 10 60 105.661
v 20 60 106.873
v 30 60 108.803
v 40 60 111.317
v 50 60 114.053
v 60 60 116.505
v 70 60 118.188
v 80 60 118.801
v 90 60 118.321
v 100 60 116.975
v 110 60 115.127
v 120 60 113.149
v 130 60 111.325
v 140 60 109.833
v 0 70 104.879
v 10 70 105.136
v 20 70 106.089
v 30 70 107.879
v 40 70 110.4
v 50 70 113.288
v 60 70 116.007
v 70 70 118.017
v 80 70 118.952
v 90 70 118.723
v 100 70 117.505
v 110 70 115.637
v 120 70 113.494
v 130 70 111.395
v 140 70 109.574
v 0 80 104.568
v 10 80 104.563
v 20 80 105.248
v 30 80 106.796
v 40 80 109.134
v 50 80 111.928
v 60 80 114.664
v 70 80 116.802
v 80 80 117.954
v 90 80 117.983
v 100 80 117.007
v 110 80 115.316
v 120 80 113.253
v 130 80 111.138
v 140 80 109.231
v 0 90 104.174
v 10 90 104.015
v 20 90 104.476
v 30 90 105.733
v 40 90 107.744
v 50 90 110.232
v 60 90 112.745
v 70 90 114.801
v 80 90 116.029
v 90 90 116.275
v 100 90 115.604
v 110 90 114.239
v 120 90 112.47
v 130 90 110.585
v 140 90 108.837
v 0 100 103.741
v 10 100 103.574
v 20 100 103.905
v 30 100 104.889
v 40 100 106.507
v 50 100 108.545
v 60 100 110.649
v 70 100 112.428
v 80 100 113.576
v 90 100 113.947
v 100 100 113.571
v 110 100 112.607
v 120 100 111.278
v 130 100 109.816
v 140 100 108.437
v 0 110 103.315
v 10 110 103.296
v 20 110 103.624
v 30 110 104.411
v 40 110 105.642
v 50 110 107.17
v 60 110 108.748
v 70 110 110.102
v 80 110 111.016
v 90 110 111.389
v 100 110 111.238
v 110 110 110.674
v 120 110 109.852
v 130 110 108.934
v 140 110 108.072
v 0 120 102.927
v 10 120 103.192
v 20 120 103.647
v 30 120 104.339
v 40 120 105.245
v 50 120 106.273
v 60 120 107.28
v 70 120 108.116
v 80 120 108.676
v 90 120 108.925
v 100 120 108.899
v 110 120 108.678
v 120 120 108.359
v 130 120 108.031
v 140 120 107.763
v 0 130 102.59
v 10 130 103.227
v 20 130 103.906
v 30 130 104.6
v 40 130 105.265
v 50 130 105.85
v 60 130 106.304
v 70 130 106.596
v 80 130 106.735
v 90 130 106.767
v 100 130 106.766
v 110 130 106.806
v 120 130 106.938
v 130 130 107.18
v 140 130 107.514
v 0 140 102.3
v 10 140 103.331
v 20 140 104.277
v 30 140 105.037
v 40 140 105.543
v 50 140 105.769
v 60 140 105.739
v 70 140 105.526
v 80 140 105.241
v 90 140 105.015
v 100 140 104.971
v 110 140 105.19
v 120 140 105.692
v 130 140 106.432
v 140 140 107.31
f 1 2 17
f 1 17 16
f 2 3 18
f 2 18 17
f 3 4 19
f 3 19 18
f 4 5 20
f 4 20 19
f 5 6 21
f 5 21 20
f 6 7 22
f 6 22 21
f 7 8 23
f 7 23 22
f 8 9 24
f 8 24 23
f 9 10 25
f 9 25 24
f 10 11 26
f 10 26 25
f 11 12 27
f 11 27 26
f 12 13 28
f 12 28 27
f 13 14 29
f 13 29 28
f 14 15 30
f 14 30 29
f 16 17 32
f 16 32 31
f 17 18 33
f 17 33 32
f 18 19 34
f 18 34 33
f 19 20 35
f 19 35 34
f 20 21 36
f 20 36 35
f 21 22 37
f 21 37 36
f 22 23 38
f 22 38 37
f 23 24 39
f 23 39 38
f 24 25 40
f 24 40 39
f 25 26 41
f 25 41 40
f 26 27 42
f 26 42 41
f 27 28 43
f 27 43 42
f 28 29 44
f 28 44 43
f 29 30 45
f 29 45 44
f 31 32 47
f 31 47 46
f 32 33 48
f 32 48 47
f 33 34 49
f 33 49 48
f 34 35 50
f 34 50 49
f 35 36 51
f 35 51 50
f 36 37 52
f 36 52 51
f 37 38 53
f 37 53 52
f 38 39 54
f 38 54 53
f 39 40 55
f 39 55 54
f 40 41 56
f 40 56 55
f 41 42 57
f 41 57 56
f 42 43 58
f 42 58 57
f 43 44 59
f 43 59 58
f 44 45 60
f 44 60 59
f 46 47 62
f 46 62 61
f 47 48 63
f 47 63 62
f 48 49 64
f 48 64 63
f 49 50 65
f 49 65 64
f 50 51 66
f 50 66 65
f 51 52 67
f 51 67 66
f 52 53 68
f 52 68 67
f 53 54 69
f 53 69 68
f 54 55 70
f 54 70 69
f 55 56 71
f 55 71 70
f 56 57 72
f 56 72 71
f 57 58 73
f 57 73 72
f 58 59 74
f 58 74 73
f 59 60 75
f 59 75 74
f 61 62 77
f 61 77 76
f 62 63 78
f 62 78 77
f 63 64 79
f 63 79 78
f 64 65 80
f 64 80 79
f 65 66 81
f 65 81 80
f 66 67 82
f 66 82 81
f 67 68 83
f 67 83 82
f 68 69 84
f 68 84 83
f 69 70 85
f 69 85 84
f 70 71 86
f 70 86 85
f 71 72 87
f 71 87 86
f 72 73 88
f 72 88 87
f 73 74 89
f 73 89 88
f 74 75 90
f 74 90 89
f 76 77 92
f 76 92 91
f 77 78 93
f 77 93 92
f 78 79 94
f 78 94 93
f 79 80 95
f 79 95 94
f 80 81 96
f 80 96 95
f 81 82 97
f 81 97 96
f 82 83 98
f 82 98 97
f 83 84 99
f 83 99 98
f 84 85 100
f 84 100 99
f 85 86 101
f 85 101 100
f 86 87 102
f 86 102 101
f 87 88 103
f 87 103 102
f 88 89 104
f 88 104 103
f 89 90 105
f 89 105 104
f 91 92 107
f 91 107 106
f 92 93 108
f 92 108 107
f 93 94 109
f 93 109 108
f 94 95 110
f 94 110 109
f 95 96 111
f 95 111 110
f 96 97 112
f 96 112 111
f 97 98 113
f 97 113 112
f 98 99 114
f 98 114 113
f 99 100 115
f 99 115 114
f 100 101 116
f 100 116 115
f 101 102 117
f 101 117 116
f 102 103 118
f 102 118 117
f 103 104 119
f 103 119 118
f 104 105 120
f 104 120 119
f 106 107 122
f 106 122 121
f 107 108 123
f 107 123 122
f 108 109 124
f 108 124 123
f 109 110 125
f 109 125 124
f 110 111 126
f 110 126 125
f 111 112 127
f 111 127 126
f 112 113 128
f 112 128 127
f 113 114 129
f 113 129 128
f 114 115 130
f 114 130 129
f 115 116 131
f 115 131 130
f 116 117 132
f 116 132 131
f 117 118 133
f 117 133 132
f 118 119 134
f 118 134 133
f 119 120 135
f 119 135 134
f 121 122 137
f 121 137 136
f 122 123 138
f 122 138 137
f 123 124 139
f 123 139 138
f 124 125 140
f 124 140 139
f 125 126 141
f 125 141 140
f 126 127 142
f 126 142 141
f 127 128 143
f 127 143 142
f 128 129 144
f 128 144 143
f 129 130 145
f 129 145 144
f 130 131 146
f 130 146 145
f 131 132 147
f 131 147 146
f 132 133 148
f 132 148 147
f 133 134 149
f 133 149 148
f 134 135 150
f 134 150 149
f 136 137 152
f 136 152 151
f 137 138 153
f 137 153 152
f 138 139 154
f 138 154 153
f 139 140 155
f 139 155 154
f 140 141 156
f 140 156 155
f 141 142 157
f 141 157 156
f 142 143 158
f 142 158 157
f 143 144 159
f 143 159 158
f 144 145 160
f 144 160 159
f 145 146 161
f 145 161 160
f 146 147 162
f 146 162 161
f 147 148 163
f 147 163 162
f 148 149 164
f 148 164 163
f 149 150 165
f 149 165 164
f 151 152 167
f 151 167 166
f 152 153 168
f 152 168 167
f 153 154 169
f 153 169 168
f 154 155 170
f 154 170 169
f 155 156 171
f 155 171 170
f 156 157 172
f 156 172 171
f 157 158 173
f 157 173 172
f 158 159 174
f 158 174 173
f 159 160 175
f 159 175 174
f 160 161 176
f 160 176 175
f 161 162 177
f 161 177 176
f 162 163 178
f 162 178 177
f 163 164 179
f 163 179 178
f 164 165 180
f 164 180 179
f 166 167 182
f 166 182 181
f 167 168 183
f 167 183 182
f 168 169 184
f 168 184 183
f 169 170 185
f 169 185 184
f 170 171 186
f 170 186 185
f 171 172 187
f 171 187 186
f 172 173 188
f 172 188 187
f 173 174 189
f 173 189 188
f 174 175 190
f 174 190 189
f 175 176 191
f 175 191 190
f 176 177 192
f 176 192 191
f 177 178 193
f 177 193 192
f 178 179 194
f 178 194 193
f 179 180 195
f 179 195 194
f 181 182 197
f 181 197 196
f 182 183 198
f 182 198 197
f 183 184 199
f 183 199 198
f 184 185 200
f 184 200 199
f 185 186 201
f 185 201 200
f 186 187 202
f 186 202 201
f 187 188 203
f 187 203 202
f 188 189 204
f 188 204 203
f 189 190 205
f 189 205 204
f 190 191 206
f 190 206 205
f 191 192 207
f 191 207 206
f 192 193 208
f 192 208 207
f 193 194 209
f 193 209 208
f 194 195 210
f 194 210 209
f 196 197 212
f 196 212 211
f 197 198 213
f 197 213 212
f 198 199 214
f 198 214 213
f 199 200 215
f 199 215 214
f 200 201 216
f 200 216 215
f 201 202 217
f 201 217 216
f 202 203 218
f 202 218 217
f 203 204 219
f 203 219 218
f 204 205 220
f 204 220 219
f 205 206 221
f 205 221 220
f 206 207 222
f 206 222 221
f 207 208 223
f 207 223 222
f 208 209 224
f 208 224 223
f 209 210 225
f 209 225 224
