  0
SECTION
  2
HEADER
  9
$ACADVER
  1
AC1018
  9
$ACADMAINTVER
 70
     0
  9
$DWGCODEPAGE
  3
ANSI_1252
  9
$LASTSAVEDBY
  1

  9
$INSBASE
 10
0.0
 20
0.0
 30
0.0
  9
$EXTMIN
 10
0.0
 20
0.0
 30
0.0
  9
$EXTMAX
 10
0.0
 20
0.0
 30
0.0
  9
$LIMMIN
 10
0.0
 20
0.0
  9
$LIMMAX
 10
12.0
 20
9.0
  9
$ORTHOMODE
 70
     0
  9
$REGENMODE
 70
     1
  9
$FILLMODE
 70
     1
  9
$QTEXTMODE
 70
     0
  9
$MIRRTEXT
 70
     0
  9
$LTSCALE
 40
1.0
  9
$ATTMODE
 70
     1
  9
$TEXTSIZE
 40
0.2
  9
$TRACEWID
 40
0.05
  9
$TEXTSTYLE
  7
STANDARD
  9
$CLAYER
  8
0
  9
$CELTYPE
  6
BYLAYER
  9
$CECOLOR
 62
   256
  9
$CELTSCALE
 40
1.0
  9
$DISPSILH
 70
     0
  9
$DIMSCALE
 40
1.0
  9
$DIMASZ
 40
0.18
  9
$DIMEXO
 40
0.0625
  9
$DIMDLI
 40
0.38
  9
$DIMRND
 40
0.0
  9
$DIMDLE
 40
0.0
  9
$DIMEXE
 40
0.18
  9
$DIMTP
 40
0.0
  9
$DIMTM
 40
0.0
  9
$DIMTXT
 40
0.18
  9
$DIMCEN
 40
0.09
  9
$DIMTSZ
 40
0.0
  9
$DIMTOL
 70
     0
  9
$DIMLIM
 70
     0
  9
$DIMTIH
 70
     1
  9
$DIMTOH
 70
     1
  9
$DIMSE1
 70
     0
  9
$DIMSE2
 70
     0
  9
$DIMTAD
 70
     0
  9
$DIMZIN
 70
     0
  9
$DIMBLK
  1

  9
$DIMASO
 70
     1
  9
$DIMSHO
 70
     1
  9
$DIMPOST
  1

  9
$DIMAPOST
  1

  9
$DIMALT
 70
     0
  9
$DIMALTD
 70
     2
  9
$DIMALTF
 40
25.4
  9
$DIMLFAC
 40
1.0
  9
$DIMTOFL
 70
     0
  9
$DIMTVP
 40
0.0
  9
$DIMTIX
 70
     0
  9
$DIMSOXD
 70
     0
  9
$DIMSAH
 70
     0
  9
$DIMBLK1
  1

  9
$DIMBLK2
  1

  9
$DIMSTYLE
  2
STANDARD
  9
$DIMCLRD
 70
     0
  9
$DIMCLRE
 70
     0
  9
$DIMCLRT
 70
     0
  9
$DIMTFAC
 40
1.0
  9
$DIMGAP
 40
0.09
  9
$DIMJUST
 70
     0
  9
$DIMSD1
 70
     0
  9
$DIMSD2
 70
     0
  9
$DIMTOLJ
 70
     1
  9
$DIMTZIN
 70
     0
  9
$DIMALTZ
 70
     0
  9
$DIMALTTZ
 70
     0
  9
$DIMUPT
 70
     0
  9
$DIMDEC
 70
     4
  9
$DIMTDEC
 70
     4
  9
$DIMALTU
 70
     2
  9
$DIMALTTD
 70
     2
  9
$DIMTXSTY
  7
STANDARD
  9
$DIMAUNIT
 70
     0
  9
$DIMADEC
 70
     0
  9
$DIMALTRND
 40
0.0
  9
$DIMAZIN
 70
     0
  9
$DIMDSEP
 70
    46
  9
$DIMATFIT
 70
     0
  9
$DIMFRAC
 70
     0
  9
$DIMLDRBLK
  1

  9
$DIMLUNIT
 70
     2
  9
$DIMLWD
 70
    -2
  9
$DIMLWE
 70
    -2
  9
$DIMTMOVE
 70
     0
  9
$LUNITS
 70
     2
  9
$LUPREC
 70
     4
  9
$SKETCHINC
 40
0.1
  9
$FILLETRAD
 40
0.0
  9
$AUNITS
 70
     0
  9
$AUPREC
 70
     0
  9
$MENU
  1
.
  9
$ELEVATION
 40
0.0
  9
$PELEVATION
 40
0.0
  9
$THICKNESS
 40
0.0
  9
$LIMCHECK
 70
     0
  9
$CHAMFERA
 40
0.0
  9
$CHAMFERB
 40
0.0
  9
$CHAMFERC
 40
0.0
  9
$CHAMFERD
 40
0.0
  9
$SKPOLY
 70
     0
  9
$TDCREATE
 40
2461273.966805555392
  9
$TDUCREATE
 40
2461273.633472222369
  9
$TDUPDATE
 40
2461273.966805555392
  9
$TDUUPDATE
 40
2461273.633472222369
  9
$TDINDWG
 40
0.0
  9
$TDUSRTIMER
 40
0.0
  9
$USRTIMER
 70
     1
  9
$ANGBASE
 50
0.0
  9
$ANGDIR
 70
     0
  9
$PDMODE
 70
     0
  9
$PDSIZE
 40
0.0
  9
$PLINEWID
 40
0.0
  9
$SPLFRAME
 70
     0
  9
$SPLINETYPE
 70
     6
  9
$SPLINESEGS
 70
     8
  9
$HANDSEED
  5
51
  9
$SURFTAB1
 70
     6
  9
$SURFTAB2
 70
     6
  9
$SURFTYPE
 70
     6
  9
$SURFU
 70
     6
  9
$SURFV
 70
     6
  9
$UCSBASE
  2

  9
$UCSNAME
  2

  9
$UCSORG
 10
0.0
 20
0.0
 30
0.0
  9
$UCSXDIR
 10
1.0
 20
0.0
 30
0.0
  9
$UCSYDIR
 10
0.0
 20
1.0
 30
0.0
  9
$UCSORTHOREF
  2

  9
$UCSORTHOVIEW
 70
     0
  9
$UCSORGTOP
 10
0.0
 20
0.0
 30
0.0
  9
$UCSORGBOTTOM
 10
0.0
 20
0.0
 30
0.0
  9
$UCSORGLEFT
 10
0.0
 20
0.0
 30
0.0
  9
$UCSORGRIGHT
 10
0.0
 20
0.0
 30
0.0
  9
$UCSORGFRONT
 10
0.0
 20
0.0
 30
0.0
  9
$UCSORGBACK
 10
0.0
 20
0.0
 30
0.0
  9
$PUCSBASE
  2

  9
$PUCSNAME
  2

  9
$PUCSORG
 10
0.0
 20
0.0
 30
0.0
  9
$PUCSXDIR
 10
1.0
 20
0.0
 30
0.0
  9
$PUCSYDIR
 10
0.0
 20
1.0
 30
0.0
  9
$PUCSORTHOREF
  2

  9
$PUCSORTHOVIEW
 70
     0
  9
$PUCSORGTOP
 10
0.0
 20
0.0
 30
0.0
  9
$PUCSORGBOTTOM
 10
0.0
 20
0.0
 30
0.0
  9
$PUCSORGLEFT
 10
0.0
 20
0.0
 30
0.0
  9
$PUCSORGRIGHT
 10
0.0
 20
0.0
 30
0.0
  9
$PUCSORGFRONT
 10
0.0
 20
0.0
 30
0.0
  9
$PUCSORGBACK
 10
0.0
 20
0.0
 30
0.0
  9
$USERI1
 70
     0
  9
$USERI2
 70
     0
  9
$USERI3
 70
     0
  9
$USERI4
 70
     0
  9
$USERI5
 70
     0
  9
$USERR1
 40
0.0
  9
$USERR2
 40
0.0
  9
$USERR3
 40
0.0
  9
$USERR4
 40
0.0
  9
$USERR5
 40
0.0
  9
$WORLDVIEW
 70
     1
  9
$SHADEDGE
 70
     3
  9
$SHADEDIF
 70
    70
  9
$TILEMODE
 70
     1
  9
$MAXACTVP
 70
    64
  9
$PINSBASE
 10
0.0
 20
0.0
 30
0.0
  9
$PLIMCHECK
 70
     0
  9
$PEXTMIN
 10
100000000000000000000.0
 20
100000000000000000000.0
 30
100000000000000000000.0
  9
$PEXTMAX
 10
-100000000000000000000.0
 20
-100000000000000000000.0
 30
-100000000000000000000.0
  9
$PLIMMIN
 10
0.0
 20
0.0
  9
$PLIMMAX
 10
12.0
 20
9.0
  9
$UNITMODE
 70
     0
  9
$VISRETAIN
 70
     1
  9
$PLINEGEN
 70
     0
  9
$PSLTSCALE
 70
     1
  9
$TREEDEPTH
 70
  3020
  9
$CMLSTYLE
  2
STANDARD
  9
$CMLJUST
 70
     0
  9
$CMLSCALE
 40
1.0
  9
$PROXYGRAPHICS
 70
     1
  9
$MEASUREMENT
 70
     0
  9
$CELWEIGHT
370
    -1
  9
$ENDCAPS
280
     0
  9
$JOINSTYLE
280
     0
  9
$LWDISPLAY
290
0
  9
$INSUNITS
 70
     0
  9
$HYPERLINKBASE
  1

  9
$STYLESHEET
  1

  9
$XEDIT
290
1
  9
$CEPSNTYPE
380
     0
  9
$PSTYLEMODE
290
1
  9
$FINGERPRINTGUID
  2
3ce51db6-a9b9-49c8-b80b-fd0f9007d6d5
  9
$VERSIONGUID
  2
9eb4d40a-f0d6-4b4a-aa69-01568adf48be
  9
$EXTNAMES
290
1
  9
$PSVPSCALE
 40
0.0
  9
$OLESTARTUP
290
0
  9
$SORTENTS
280
   127
  9
$INDEXCTL
280
     0
  9
$HIDETEXT
280
     0
  9
$XCLIPFRAME
290
1
  9
$HALOGAP
280
     0
  9
$OBSCOLOR
 70
   257
  9
$OBSLTYPE
280
     0
  9
$INTERSECTIONDISPLAY
280
     0
  9
$INTERSECTIONCOLOR
 70
   257
  9
$DIMASSOC
280
     1
  9
$PROJECTNAME
  1

  0
ENDSEC
  0
SECTION
  2
TABLES
  0
TABLE
  2
APPID
100
AcDbSymbolTable
 70
     0
  0
APPID
  5
1
100
AcDbSymbolTableRecord
100
AcDbRegAppTableRecord
  2
ACAD
 70
     0
  0
APPID
  5
2
100
AcDbSymbolTableRecord
100
AcDbRegAppTableRecord
  2
ACADANNOTATIVE
 70
     0
  0
APPID
  5
4
100
AcDbSymbolTableRecord
100
AcDbRegAppTableRecord
  2
ACAD_MLEADERVER
 70
     0
  0
APPID
  5
3
100
AcDbSymbolTableRecord
100
AcDbRegAppTableRecord
  2
ACAD_NAV_VCDISPLAY
 70
     0
  0
ENDTAB
  0
TABLE
  2
BLOCK_RECORD
100
AcDbSymbolTable
 70
     0
  0
BLOCK_RECORD
  5
5
100
AcDbSymbolTableRecord
100
AcDbBlockTableRecord
  2
*MODEL_SPACE
 70
     0
340
0
  0
BLOCK_RECORD
  5
6
100
AcDbSymbolTableRecord
100
AcDbBlockTableRecord
  2
*PAPER_SPACE
 70
     0
340
0
  0
ENDTAB
  0
TABLE
  2
DIMSTYLE
100
AcDbSymbolTable
 70
     0
  0
DIMSTYLE
  5
A
100
AcDbSymbolTableRecord
100
AcDbDimStyleTableRecord
  2
ANNOTATIVE
 70
     0
  3

  4

 40
1.0
 41
0.18
 42
0.0625
 43
0.38
 44
0.18
 45
0.0
 46
0.0
 47
0.0
 48
0.0
 71
     0
 72
     0
 73
     1
 74
     1
 75
     0
 76
     0
 77
     0
 78
     0
 79
     0
140
0.18
141
0.09
142
0.0
143
25.4
144
1.0
145
0.0
146
1.0
147
0.09
148
0.0
170
     0
171
     2
172
     0
173
     0
174
     0
175
     0
176
     0
177
     0
178
     0
179
    12
270
     1
271
     0
272
     0
273
     1
274
     0
275
     0
276
    12
277
     1
278
    46
279
     0
280
     0
281
     0
282
     0
283
     0
284
     0
285
     0
286
     0
287
     0
288
     1
289
     0
340

341

342

343

344

371
     0
372
     0
  0
DIMSTYLE
  5
9
100
AcDbSymbolTableRecord
100
AcDbDimStyleTableRecord
  2
STANDARD
 70
     0
  3

  4

 40
1.0
 41
0.18
 42
0.0625
 43
0.38
 44
0.18
 45
0.0
 46
0.0
 47
0.0
 48
0.0
 71
     0
 72
     0
 73
     1
 74
     1
 75
     0
 76
     0
 77
     0
 78
     0
 79
     0
140
0.18
141
0.09
142
0.0
143
25.4
144
1.0
145
0.0
146
1.0
147
0.09
148
0.0
170
     0
171
     2
172
     0
173
     0
174
     0
175
     0
176
     0
177
     0
178
     0
179
    12
270
     1
271
     0
272
     0
273
     1
274
     0
275
     0
276
    12
277
     1
278
    46
279
     0
280
     0
281
     0
282
     0
283
     0
284
     0
285
     0
286
     0
287
     0
288
     1
289
     0
340

341

342

343

344

371
     0
372
     0
  0
ENDTAB
  0
TABLE
  2
LTYPE
100
AcDbSymbolTable
 70
     0
  0
LTYPE
  5
C
100
AcDbSymbolTableRecord
100
AcDbLinetypeTableRecord
  2
BYBLOCK
 70
     0
  3

 72
    65
 73
     0
 40
0.0
  0
LTYPE
  5
B
100
AcDbSymbolTableRecord
100
AcDbLinetypeTableRecord
  2
BYLAYER
 70
     0
  3

 72
    65
 73
     0
 40
0.0
  0
LTYPE
  5
8
100
AcDbSymbolTableRecord
100
AcDbLinetypeTableRecord
  2
CONTINUOUS
 70
     0
  3

 72
    65
 73
     0
 40
0.0
  0
ENDTAB
  0
TABLE
  2
LAYER
100
AcDbSymbolTable
 70
     0
  0
LAYER
  5
7
100
AcDbSymbolTableRecord
100
AcDbLayerTableRecord
  2
0
 70
     0
 62
     7
  6
CONTINUOUS
290
1
370
     0
390
0
  0
LAYER
  5
10
100
AcDbSymbolTableRecord
100
AcDbLayerTableRecord
  2
Pit Shell
 70
     0
 62
     7
  6
CONTINUOUS
290
1
370
     0
390
0
  0
LAYER
  5
11
100
AcDbSymbolTableRecord
100
AcDbLayerTableRecord
  2
Haul Road
 70
     0
 62
     7
  6
CONTINUOUS
290
1
370
     0
390
0
  0
ENDTAB
  0
TABLE
  2
STYLE
100
AcDbSymbolTable
 70
     0
  0
STYLE
  5
E
100
AcDbSymbolTableRecord
100
AcDbTextStyleTableRecord
  2
ANNOTATIVE
 70
     0
 40
0.0
 41
1.0
 50
0.0
 71
     0
 42
0.2
  3
txt
  4

  0
STYLE
  5
D
100
AcDbSymbolTableRecord
100
AcDbTextStyleTableRecord
  2
STANDARD
 70
     0
 40
0.0
 41
1.0
 50
0.0
 71
     0
 42
0.2
  3
txt
  4

  0
ENDTAB
  0
TABLE
  2
VPORT
100
AcDbSymbolTable
 70
     0
  0
VPORT
  5
F
100
AcDbSymbolTableRecord
100
AcDbViewportTableRecord
  2
*ACTIVE
 70
     0
 10
0.0
 20
0.0
 11
1.0
 21
1.0
 12
0.0
 22
0.0
 13
0.0
 23
0.0
 14
1.0
 24
1.0
 15
1.0
 25
1.0
 16
0.0
 26
0.0
 36
1.0
 17
0.0
 27
0.0
 37
0.0
 40
1.0
 41
1.0
 42
50.0
 43
0.0
 44
0.0
 50
0.0
 51
0.0
 71
     0
 72
  1000
 73
     1
 74
     3
 75
     0
 76
     0
 77
     0
 78
     0
281
     0
 65
     0
  0
ENDTAB
  0
ENDSEC
  0
SECTION
  2
ENTITIES
  0
LWPOLYLINE
  5
12
100
AcDbEntity
  8
Pit Shell
 62
     7
370
     0
420
 16777215
430

440
 33554687
100
AcDbPolyline
 90
       26
 70
     1
 10
-884.971343482044
 20
-135.734081065628
 10
-899.780014864171
 20
-74.376894438467
 10
-893.435051402879
 20
25.065099512894
 10
-856.409616308451
 20
93.826621831118
 10
-751.678274486457
 20
146.720100537444
 10
-650.125049353779
 20
157.298796278709
 10
-474.51719739313
 20
132.967044745976
 10
-307.373053353317
 20
189.034883502505
 10
-61.948063483786
 20
272.605077202855
 10
175.01321846491
 20
297.992444326247
 10
397.16582903148
 20
236.639014338198
 10
539.978221538561
 20
64.205522427752
 10
727.224141470246
 20
-82.840602359302
 10
895.423901100718
 20
-99.764261561859
 10
992.747150592536
 20
-215.074299125118
 10
1027.657597866534
 20
-363.176039502831
 10
992.747150592536
 20
-431.937561821055
 10
865.802801697353
 20
-501.754699729938
 10
571.714308762357
 20
-512.333395471203
 10
285.033908157536
 20
-470.018612506142
 10
6.813458834438
 20
-445.68686097341
 10
-166.675648666667
 20
-537.724519233707
 10
-339.109140577113
 20
-543.01386710434
 10
-526.351303869685
 20
-463.673649044851
 10
-681.861136577574
 20
-327.206219999061
 10
-851.120268437818
 20
-290.180784904633
  0
LWPOLYLINE
  5
13
100
AcDbEntity
  8
Pit Shell
 62
     7
370
     0
420
 16777215
430

440
 33554687
100
AcDbPolyline
 90
       34
 70
     1
 38
-12.0
 10
-878.211593556396
 20
-134.215163255789
 10
-878.227960809605
 20
-134.144074618032
 10
-892.799074275557
 20
-73.771168418288
 10
-886.617298256313
 20
23.113256096466
 10
-851.342147637629
 20
88.624250102593
 10
-749.692714152156
 20
139.961242945789
 10
-650.243289333023
 20
150.320787957097
 10
-474.673050259311
 20
125.994247964789
 10
-473.074762002257
 20
126.143294661837
 10
-305.162211253721
 20
182.468892394557
 10
-305.147290003301
 20
182.473935436202
 10
-60.444065380522
 20
265.798359292539
 10
174.440016967389
 20
290.963181076793
 10
393.22038972807
 20
230.541085434081
 10
534.878377382041
 20
59.501436567684
 10
535.408264910134
 20
58.985145945737
 10
723.720530635476
 20
-88.898391035386
 10
725.549557990263
 20
-89.635296075296
 10
891.938925528705
 20
-106.376800090141
 10
986.383926319337
 20
-218.276645663479
 10
1020.332818020417
 20
-362.299147161747
 10
987.53659696969
 20
-426.896374118867
 10
863.907481550979
 20
-494.890192479921
 10
572.09880438048
 20
-505.386880669384
 10
285.943931398738
 20
-463.149666967049
 10
285.739857296661
 20
-463.125703763708
 10
6.418045974078
 20
-438.697632688022
 10
4.452474543368
 20
-439.096609344471
 10
-168.498879860568
 20
-530.848984358469
 10
-337.804027663052
 20
-536.042371171521
 10
-522.620511347679
 20
-457.729987578653
 10
-677.952209539787
 20
-321.418880219856
 10
-679.521699750235
 20
-320.62594282879
 10
-845.30311032368
 20
-284.361259265849
  0
LWPOLYLINE
  5
14
100
AcDbEntity
  8
Pit Shell
 62
     7
370
     0
420
 16777215
430

440
 33554687
100
AcDbPolyline
 90
       34
 70
     1
 38
-12.0
 10
-870.406106677942
 20
-132.46126804301
 10
-870.441373207241
 20
-132.308093316971
 10
-884.738178419492
 20
-73.071736256676
 10
-878.744835027436
 20
20.859461452685
 10
-845.490738835211
 20
82.617068666818
 10
-747.399986565153
 20
132.156786445877
 10
-650.379821100713
 20
142.263277991317
 10
-474.853013647797
 20
117.942755767543
 10
-471.409181079838
 20
118.263906765916
 10
-302.609350691056
 20
174.887138927213
 10
-302.577199864713
 20
174.898005171771
 10
-58.707397960961
 20
257.938638456901
 10
173.778140889601
 20
282.84648701824
 10
388.66458884028
 20
223.499803645498
 10
528.989584588859
 20
54.06962609248
 10
530.131333530919
 20
52.957174411412
 10
719.674909318296
 20
-95.893322881047
 10
723.615915544366
 20
-97.481132567277
 10
887.914822359462
 20
-114.012301888803
 10
979.036307825246
 20
-221.974396935402
 10
1011.874890788597
 20
-361.286599103396
 10
981.519967896135
 20
-421.075311965079
 10
861.718954357559
 20
-486.963742262618
 10
572.542781677731
 20
-497.365736287864
 10
286.994735725293
 20
-455.218091854959
 10
286.555017147674
 20
-455.166458327819
 10
5.96146253134
 20
-430.627167024029
 10
1.726244711366
 20
-431.486842240481
 10
-170.604165901755
 20
-522.909800536385
 10
-336.29701307854
 20
-527.992381064585
 10
-518.312563213937
 20
-450.86683848369
 10
-673.43856938477
 20
-314.736235861025
 10
-676.820350786201
 20
-313.027693237593
 10
-838.586034717448
 20
-277.641449877632
  0
LWPOLYLINE
  5
15
100
AcDbEntity
  8
Pit Shell
 62
     7
370
     0
420
 16777215
430

440
 33554687
100
AcDbPolyline
 90
       34
 70
     1
 38
-24.0
 10
-863.646356752293
 20
-130.942350233172
 10
-863.6979905348
 20
-130.718086869385
 10
-877.757237830878
 20
-72.466010236497
 10
-871.92708188087
 20
18.907618036257
 10
-840.423270164388
 20
77.414696938293
 10
-745.414426230852
 20
125.397928854223
 10
-650.498061079957
 20
135.285269669705
 10
-475.008866513977
 20
110.969958986355
 10
-469.966745688965
 20
111.440156681777
 10
-300.398508591461
 20
168.321147819265
 10
-300.351436514697
 20
168.337057105468
 10
-57.203399857696
 20
251.131920546585
 10
173.20493939208
 20
275.817223768786
 10
384.719149536869
 20
217.40187474138
 10
523.889740432339
 20
49.365540232412
 10
525.561376902492
 20
47.736797929396
 10
716.171298483527
 20
-101.95111155713
 10
721.941332064383
 20
-104.275826283271
 10
884.429846787448
 20
-120.624840417085
 10
972.673083552046
 20
-225.176743473763
 10
1004.550110942481
 20
-360.409706762312
 10
976.309414273289
 20
-416.034124262891
 10
859.823634211185
 20
-480.099235012601
 10
572.927277295855
 20
-490.419221486045
 10
287.904758966494
 20
-448.349146315866
 10
287.260966286798
 20
-448.273549585384
 10
5.56604967098
 20
-423.637938738641
 10
-0.634739579704
 20
-424.896590611543
 10
-172.427397095656
 20
-516.034265661147
 10
-334.991900164479
 20
-521.020885131766
 10
-514.581770691931
 20
-444.923177017492
 10
-669.529642346983
 20
-308.94889608182
 10
-674.480913958862
 20
-306.447416067321
 10
-832.76887660331
 20
-271.821924238848
  0
LWPOLYLINE
  5
16
100
AcDbEntity
  8
Pit Shell
 62
     7
370
     0
420
 16777215
430

440
 33554687
100
AcDbPolyline
 90
       34
 70
     1
 38
-24.0
 10
-855.840869873841
 20
-129.188455020383
 10
-855.911402932436
 20
-128.882105568324
 10
-869.696341974813
 20
-71.766578074886
 10
-864.054618651993
 20
16.653823392476
 10
-834.57186136197
 20
71.407515502518
 10
-743.121698643849
 20
117.593472354311
 10
-650.634592847648
 20
127.227759703925
 10
-475.188829902464
 20
102.918466789109
 10
-468.301164766546
 20
103.560768785856
 10
-297.845648028799
 20
160.73939435192
 10
-297.781346376124
 20
160.761126841032
 10
-55.466732438135
 20
243.272199710948
 10
172.543063314292
 20
267.700529710233
 10
380.163348649079
 20
210.360592952797
 10
518.000947639155
 20
43.933729757208
 10
520.284445523277
 20
41.708826395071
 10
712.125677166347
 20
-108.946043402792
 10
720.007689618487
 20
-112.121662775251
 10
880.405743618205
 20
-128.260342215747
 10
965.325465057955
 20
-228.874494745686
 10
996.09218371066
 20
-359.397158703961
 10
970.292785199735
 20
-410.213062109103
 10
857.635107017765
 20
-472.172784795298
 10
573.371254593106
 20
-482.398077104525
 10
288.955563293047
 20
-440.417571203776
 10
288.076126137813
 20
-440.314304149496
 10
5.109466228241
 20
-415.567473074648
 10
-3.360969411707
 20
-417.286823507553
 10
-174.532683136843
 20
-508.095081839063
 10
-333.484885579967
 20
-512.970895024831
 10
-510.273822558188
 20
-438.060027922529
 10
-665.016002191965
 20
-302.266251722988
 10
-671.779564994829
 20
-298.849166476124
 10
-826.051800997078
 20
-265.102114850632
  0
LWPOLYLINE
  5
17
100
AcDbEntity
  8
Pit Shell
 62
     7
370
     0
420
 16777215
430

440
 33554687
100
AcDbPolyline
 90
       34
 70
     1
 38
-36.0
 10
-849.081119948193
 20
-127.669537210544
 10
-849.168020259995
 20
-127.292099120739
 10
-862.715401386199
 20
-71.160852054706
 10
-857.236865505426
 20
14.701979976049
 10
-829.504392691148
 20
66.205143773994
 10
-741.136138309548
 20
110.834614762656
 10
-650.752832826892
 20
120.249751382313
 10
-475.344682768644
 20
95.945670007922
 10
-466.858729375672
 20
96.737018701717
 10
-295.634805929203
 20
154.173403243972
 10
-295.555583026111
 20
154.200178774728
 10
-53.962734334871
 20
236.465481800632
 10
171.96986181677
 20
260.671266460779
 10
376.217909345669
 20
204.262664048679
 10
512.901103482636
 20
39.22964389714
 10
515.71448889485
 20
36.488449913056
 10
708.622066331577
 20
-115.003832078875
 10
718.333106138504
 20
-118.916356491245
 10
876.920768046191
 20
-134.872880744029
 10
958.962240784756
 20
-232.076841284047
 10
988.767403864544
 20
-358.520266362877
 10
965.082231576889
 20
-405.171874406915
 10
855.739786871391
 20
-465.308277545281
 10
573.75575021123
 20
-475.451562302706
 10
289.86558653425
 20
-433.548625664683
 10
288.782075276938
 20
-433.421395407061
 10
4.714053367882
 20
-408.57824478926
 10
-5.721953702777
 20
-410.696571878614
 10
-176.355914330744
 20
-501.219546963825
 10
-332.179772665907
 20
-505.999399092011
 10
-506.543030036182
 20
-432.116366456331
 10
-661.107075154178
 20
-296.478911943783
 10
-669.440128167489
 20
-292.268889305852
 10
-820.23464288294
 20
-259.282589211847
  0
LWPOLYLINE
  5
18
100
AcDbEntity
  8
Pit Shell
 62
     7
370
     0
420
 16777215
430

440
 33554687
100
AcDbPolyline
 90
       34
 70
     1
 38
-36.0
 10
-841.275633069738
 20
-125.915641997765
 10
-841.381432657631
 20
-125.456117819678
 10
-854.654505530134
 20
-70.461419893095
 10
-849.364402276549
 20
12.448185332268
 10
-823.65298388873
 20
60.197962338218
 10
-738.843410722545
 20
103.030158262744
 10
-650.889364594582
 20
112.192241416532
 10
-475.52464615713
 20
87.894177810676
 10
-465.193148453253
 20
88.857630805796
 10
-293.081945366531
 20
146.59164977663
 10
-292.985492887531
 20
146.624248510294
 10
-52.22606691531
 20
228.605760964994
 10
171.307985738983
 20
252.554572402226
 10
371.662108457878
 20
197.221382260096
 10
507.012310689452
 20
33.797833421936
 10
510.437557515635
 20
30.460478378731
 10
704.576445014397
 20
-121.998763924536
 10
716.399463692607
 20
-126.762192983226
 10
872.896664876949
 20
-142.50838254269
 10
951.614622290665
 20
-235.77459255597
 10
980.309476632724
 20
-357.507718304526
 10
959.065602503334
 20
-399.350812253127
 10
853.551259677971
 20
-457.381827327978
 10
574.199727508481
 20
-467.430417921186
 10
290.916390860803
 20
-425.617050552593
 10
289.597235127951
 20
-425.462149971172
 10
4.257469925143
 20
-400.507779125267
 10
-8.448183534779
 20
-403.086804774624
 10
-178.461200371931
 20
-493.280363141741
 10
-330.672758081395
 20
-497.949408985076
 10
-502.23508190244
 20
-425.253217361368
 10
-656.59343499916
 20
-289.796267584951
 10
-666.738779203456
 20
-284.670639714655
 10
-813.517567276708
 20
-252.562779823631
  0
LWPOLYLINE
  5
19
100
AcDbEntity
  8
Pit Shell
 62
     7
370
     0
420
 16777215
430

440
 33554687
100
AcDbPolyline
 90
       34
 70
     1
 38
-48.0
 10
-834.51588314409
 20
-124.396724187926
 10
-834.638049985192
 20
-123.866111372082
 10
-847.67356494152
 20
-69.855693872915
 10
-842.546649129983
 20
10.49634191584
 10
-818.585515217908
 20
54.995590609694
 10
-736.857850388244
 20
96.27130067109
 10
-651.007604573826
 20
105.21423309492
 10
-475.680499023311
 20
80.921381029488
 10
-463.75071306238
 20
82.033880721657
 10
-290.871103266935
 20
140.025658668682
 10
-290.759729537515
 20
140.063300443991
 10
-50.722068812046
 20
221.799043054678
 10
170.734784241461
 20
245.525309152772
 10
367.716669154468
 20
191.123453355978
 10
501.912466532933
 20
29.093747561867
 10
505.867600887207
 20
25.240101896715
 10
701.072834179627
 20
-128.05655260062
 10
714.724880212624
 20
-133.55688669922
 10
869.411689304935
 20
-149.120921070973
 10
945.251398017466
 20
-238.976939094331
 10
972.984696786607
 20
-356.630825963442
 10
953.855048880488
 20
-394.309624550939
 10
851.655939531597
 20
-450.517320077961
 10
574.584223126604
 20
-460.483903119367
 10
291.826414102007
 20
-418.7481050135
 10
290.303184267075
 20
-418.569241228738
 10
3.862057064784
 20
-393.518550839879
 10
-10.809167825849
 20
-396.496553145685
 10
-180.284431565832
 20
-486.404828266502
 10
-329.367645167334
 20
-490.977913052257
 10
-498.504289380434
 20
-419.30955589517
 10
-652.684507961373
 20
-284.008927805746
 10
-664.399342376116
 20
-278.090362544383
 10
-807.70040916257
 20
-246.743254184846
  0
LWPOLYLINE
  5
1A
100
AcDbEntity
  8
Pit Shell
 62
     7
370
     0
420
 16777215
430

440
 33554687
100
AcDbPolyline
 90
       34
 70
     1
 38
-48.0
 10
-826.710396265638
 20
-122.642828975137
 10
-826.851462382825
 20
-122.030130071031
 10
-839.612669085455
 20
-69.156261711304
 10
-834.674185901106
 20
8.242547272059
 10
-812.73410641549
 20
48.988409173918
 10
-734.565122801241
 20
88.466844171178
 10
-651.144136341517
 20
97.15672312914
 10
-475.860462411797
 20
72.869888832242
 10
-462.085132139961
 20
74.154492825736
 10
-288.318242704259
 20
132.443905201342
 10
-288.189639398945
 20
132.487370179553
 10
-48.985401392485
 20
213.93932221904
 10
170.072908163673
 20
237.408615094219
 10
363.160868266677
 20
184.082171567395
 10
496.02367373975
 20
23.661937086664
 10
500.590669507992
 20
19.21213036239
 10
697.027212862447
 20
-135.051484446281
 10
712.791237766727
 20
-141.402723191201
 10
865.387586135692
 20
-156.756422869634
 10
937.903779523375
 20
-242.674690366254
 10
964.526769554787
 20
-355.618277905091
 10
947.838419806933
 20
-388.488562397151
 10
849.467412338177
 20
-442.590869860658
 10
575.028200423856
 20
-452.462758737847
 10
292.877218428561
 20
-410.816529901411
 10
291.118344118088
 20
-410.609995792849
 10
3.405473622045
 20
-385.448085175886
 10
-13.535397657852
 20
-388.886786041695
 10
-182.389717607019
 20
-478.465644444419
 10
-327.860630582822
 20
-482.927922945322
 10
-494.196341246692
 20
-412.446406800207
 10
-648.170867806355
 20
-277.326283446915
 10
-661.697993412083
 20
-270.492112953186
 10
-800.983333556338
 20
-240.02344479663
  0
LWPOLYLINE
  5
1B
100
AcDbEntity
  8
Pit Shell
 62
     7
370
     0
420
 16777215
430

440
 33554687
100
AcDbPolyline
 90
       34
 70
     1
 38
-60.0
 10
-819.95064633999
 20
-121.123911165299
 10
-820.108079710386
 20
-120.440123623435
 10
-832.631728496841
 20
-68.550535691124
 10
-827.85643275454
 20
6.290703855632
 10
-807.666637744668
 20
43.786037445394
 10
-732.57956246694
 20
81.707986579524
 10
-651.262376320761
 20
90.178714807528
 10
-476.016315277977
 20
65.897092051054
 10
-460.642696749087
 20
67.330742741596
 10
-286.107400604674
 20
125.87791409339
 10
-285.96387604891
 20
125.926422113257
 10
-47.481403289221
 20
207.132604308724
 10
169.499706666152
 20
230.379351844765
 10
359.215428963267
 20
177.984242663277
 10
490.92382958323
 20
18.957851226595
 10
496.020712879565
 20
13.991753880375
 10
693.523602027677
 20
-141.109273122365
 10
711.116654286744
 20
-148.197416907195
 10
861.902610563678
 20
-163.368961397917
 10
931.540555250175
 20
-245.877036904615
 10
957.201989708671
 20
-354.741385564007
 10
942.627866184087
 20
-383.447374694963
 10
847.572092191803
 20
-435.726362610641
 10
575.412696041979
 20
-445.516243936028
 10
293.787241669761
 20
-403.947584362317
 10
291.824293257214
 20
-403.717087050415
 10
3.010060761686
 20
-378.458856890498
 10
-15.896381948921
 20
-382.296534412757
 10
-184.212948800919
 20
-471.59010956918
 10
-326.555517668761
 20
-475.956427012502
 10
-490.465548724685
 20
-406.502745334009
 10
-644.261940768568
 20
-271.53894366771
 10
-659.358556584743
 20
-263.911835782914
 10
-795.1661754422
 20
-234.203919157846
  0
LWPOLYLINE
  5
1C
100
AcDbEntity
  8
Pit Shell
 62
     7
370
     0
420
 16777215
430

440
 33554687
100
AcDbPolyline
 90
       34
 70
     1
 38
-60.0
 10
-812.145159461535
 20
-119.37001595252
 10
-812.321492108022
 20
-118.604142322374
 10
-824.570832640776
 20
-67.851103529513
 10
-819.983969525663
 20
4.036909211851
 10
-801.81522894225
 20
37.778856009618
 10
-730.286834879937
 20
73.903530079612
 10
-651.398908088452
 20
82.121204841748
 10
-476.196278666464
 20
57.845599853808
 10
-458.977115826668
 20
59.451354845675
 10
-283.554540042004
 20
118.296160626048
 10
-283.393785910341
 20
118.350491848819
 10
-45.74473586966
 20
199.272883473087
 10
168.837830588364
 20
222.262657786212
 10
354.659628075477
 20
170.942960874694
 10
485.035036790047
 20
13.526040751391
 10
490.74378150035
 20
7.96378234605
 10
689.477980710497
 20
-148.104204968026
 10
709.183011840847
 20
-156.043253399175
 10
857.878507394435
 20
-171.004463196578
 10
924.192936756084
 20
-249.574788176538
 10
948.744062476851
 20
-353.728837505656
 10
936.611237110533
 20
-377.626312541176
 10
845.383564998383
 20
-427.799912393339
 10
575.85667333923
 20
-437.495099554508
 10
294.838045996316
 20
-396.016009250227
 10
292.639453108228
 20
-395.757841614526
 10
2.553477318947
 20
-370.388391226506
 10
-18.622611780924
 20
-374.686767308767
 10
-186.318234842107
 20
-463.650925747097
 10
-325.048503084249
 20
-467.906436905567
 10
-486.157600590943
 20
-399.639596239047
 10
-639.748300613551
 20
-264.856299308878
 10
-656.65720762071
 20
-256.313586191717
 10
-788.449099835967
 20
-227.484109769629
  0
LWPOLYLINE
  5
1D
100
AcDbEntity
  8
Pit Shell
 62
     7
370
     0
420
 16777215
430

440
 33554687
100
AcDbPolyline
 90
       34
 70
     1
 38
-72.0
 10
-805.385409535887
 20
-117.851098142681
 10
-805.578109435581
 20
-117.014135874788
 10
-817.589892052162
 20
-67.245377509333
 10
-813.166216379096
 20
2.085065795423
 10
-796.747760271428
 20
32.576484281094
 10
-728.301274545636
 20
67.144672487957
 10
-651.517148067695
 20
75.143196520136
 10
-476.352131532644
 20
50.872803072621
 10
-457.534680435795
 20
52.627604761536
 10
-281.343697942414
 20
111.730169518098
 10
-281.168022560319
 20
111.789543782519
 10
-44.240737766395
 20
192.466165562771
 10
168.264629090843
 20
215.233394536759
 10
350.714188772066
 20
164.845031970576
 10
479.935192633527
 20
8.821954891323
 10
486.173824871923
 20
2.743405864035
 10
685.974369875728
 20
-154.16199364411
 10
707.508428360864
 20
-162.837947115169
 10
854.393531822421
 20
-177.617001724861
 10
917.829712482885
 20
-252.777134714899
 10
941.419282630734
 20
-352.851945164572
 10
931.400683487686
 20
-372.585124838987
 10
843.488244852009
 20
-420.935405143322
 10
576.241168957354
 20
-430.548584752689
 10
295.748069237518
 20
-389.147063711134
 10
293.345402247352
 20
-388.864932872091
 10
2.158064458587
 20
-363.399162941118
 10
-20.983596071994
 20
-368.096515679828
 10
-188.141466036008
 20
-456.775390871858
 10
-323.743390170188
 20
-460.934940972748
 10
-482.426808068937
 20
-393.695934772849
 10
-635.839373575764
 20
-259.068959529673
 10
-654.317770793371
 20
-249.733309021445
 10
-782.631941721829
 20
-221.664584130845
  0
LWPOLYLINE
  5
1E
100
AcDbEntity
  8
Pit Shell
 62
     7
370
     0
420
 16777215
430

440
 33554687
100
AcDbPolyline
 90
       34
 70
     1
 38
-72.0
 10
-797.579922657433
 20
-116.097202929902
 10
-797.79152183322
 20
-115.178154573717
 10
-809.528996196097
 20
-66.545945347722
 10
-805.293753150219
 20
-0.168728848358
 10
-790.896351469009
 20
26.569302845318
 10
-726.008546958633
 20
59.340215988045
 10
-651.653679835386
 20
67.085686554355
 10
-476.53209492113
 20
42.821310875375
 10
-455.869099513376
 20
44.748216865615
 10
-278.790837379735
 20
104.148416050759
 10
-278.59793242175
 20
104.213613518081
 10
-42.504070346834
 20
184.606444727133
 10
167.602753013055
 20
207.116700478205
 10
346.158387884276
 20
157.803750181993
 10
474.046399840344
 20
3.390144416119
 10
480.896893492708
 20
-3.284565670291
 10
681.928748558548
 20
-161.156925489771
 10
705.574785914967
 20
-170.68378360715
 10
850.369428653179
 20
-185.252503523522
 10
910.482093988794
 20
-256.474885986822
 10
932.961355398914
 20
-351.839397106221
 10
925.384054414132
 20
-366.7640626852
 10
841.299717658589
 20
-413.008954926019
 10
576.685146254605
 20
-422.527440371169
 10
296.798873564072
 20
-381.215488599045
 10
294.160562098367
 20
-380.905687436203
 10
1.701481015848
 20
-355.328697277125
 10
-23.709825903997
 20
-360.486748575838
 10
-190.246752077195
 20
-448.836207049775
 10
-322.236375585677
 20
-452.884950865813
 10
-478.118859935195
 20
-386.832785677886
 10
-631.325733420746
 20
-252.386315170841
 10
-651.616421829337
 20
-242.135059430248
 10
-775.914866115597
 20
-214.944774742629
  0
LWPOLYLINE
  5
1F
100
AcDbEntity
  8
Pit Shell
 62
     7
370
     0
420
 16777215
430

440
 33554687
100
AcDbPolyline
 90
       34
 70
     1
 38
-84.0
 10
-790.820172731784
 20
-114.578285120064
 10
-791.048139160778
 20
-113.588148126132
 10
-802.548055607483
 20
-65.940219327543
 10
-798.476000003653
 20
-2.120572264785
 10
-785.828882798187
 20
21.366931116794
 10
-724.022986624332
 20
52.581358396391
 10
-651.77191981463
 20
60.107678232743
 10
-476.68794778731
 20
35.848514094187
 10
-454.426664122502
 20
37.924466781476
 10
-276.579995280138
 20
97.582424942811
 10
-276.372169071728
 20
97.65266545178
 10
-41.00007224357
 20
177.799726816817
 10
167.029551515534
 20
200.087437228752
 10
342.212948580866
 20
151.705821277876
 10
468.946555683824
 20
-1.313941443949
 10
476.326936864281
 20
-8.504942152306
 10
678.425137723778
 20
-167.214714165854
 10
703.900202434984
 20
-177.478477323144
 10
846.884453081165
 20
-191.865042051805
 10
904.118869715595
 20
-259.677232525183
 10
925.636575552798
 20
-350.962504765137
 10
920.173500791286
 20
-361.722874983011
 10
839.404397512215
 20
-406.144447676002
 10
577.069641872728
 20
-415.58092556935
 10
297.708896805274
 20
-374.346543059951
 10
294.86651123749
 20
-374.012778693768
 10
1.306068155489
 20
-348.339468991737
 10
-26.070810195066
 20
-353.8964969469
 10
-192.069983271095
 20
-441.960672174536
 10
-320.931262671616
 20
-445.913454932993
 10
-474.388067413189
 20
-380.889124211688
 10
-627.416806382959
 20
-246.598975391636
 10
-649.276985001998
 20
-235.554782259976
 10
-770.097708001459
 20
-209.125249103844
  0
LWPOLYLINE
  5
20
100
AcDbEntity
  8
Pit Shell
 62
     7
370
     0
420
 16777215
430

440
 33554687
100
AcDbPolyline
 90
       34
 70
     1
 38
-84.0
 10
-783.014685853332
 20
-112.824389907275
 10
-783.261551558412
 20
-111.752166825081
 10
-794.487159751418
 20
-65.240787165931
 10
-790.603536774776
 20
-4.374366908566
 10
-779.977473995769
 20
15.359749681018
 10
-721.730259037329
 20
44.776901896479
 10
-651.908451582321
 20
52.050168266963
 10
-476.867911175797
 20
27.797021896941
 10
-452.761083200084
 20
30.045078885555
 10
-274.027134717467
 20
90.000671475469
 10
-273.802078933153
 20
90.076735187344
 10
-39.263404824009
 20
169.940005981179
 10
166.367675437746
 20
191.970743170198
 10
337.657147693075
 20
144.664539489292
 10
463.057762890641
 20
-6.745751919153
 10
471.050005485066
 20
-14.532913686631
 10
674.379516406598
 20
-174.209646011516
 10
701.966559989087
 20
-185.324313815125
 10
842.860349911922
 20
-199.500543850466
 10
896.771251221504
 20
-263.374983797106
 10
917.178648320977
 20
-349.949956706786
 10
914.156871717731
 20
-355.901812829224
 10
837.215870318796
 20
-398.217997458699
 10
577.51361916998
 20
-407.55978118783
 10
298.759701131828
 20
-366.414967947862
 10
295.681671088505
 20
-366.053533257879
 10
0.84948471275
 20
-340.269003327744
 10
-28.797040027069
 20
-346.286729842909
 10
-194.175269312282
 20
-434.021488352453
 10
-319.424248087104
 20
-437.863464826058
 10
-470.080119279447
 20
-374.025975116725
 10
-622.903166227942
 20
-239.916331032804
 10
-646.575636037965
 20
-227.956532668779
 10
-763.380632395227
 20
-202.405439715628
  0
LWPOLYLINE
  5
21
100
AcDbEntity
  8
Pit Shell
 62
     7
370
     0
420
 16777215
430

440
 33554687
100
AcDbPolyline
 90
       34
 70
     1
 38
-96.0
 10
-776.254935927684
 20
-111.305472097436
 10
-776.518168885973
 20
-110.162160377485
 10
-787.506219162804
 20
-64.635061145752
 10
-783.78578362821
 20
-6.326210324994
 10
-774.910005324947
 20
10.157377952494
 10
-719.744698703028
 20
38.018044304824
 10
-652.026691561565
 20
45.072159945351
 10
-477.023764041977
 20
20.824225115754
 10
-451.31864780921
 20
23.221328801416
 10
-271.816292617871
 20
83.434680367521
 10
-271.576315583137
 20
83.515787121042
 10
-37.759406720745
 20
163.133288070863
 10
165.794473940224
 20
184.941479920745
 10
333.711708389665
 20
138.566610585175
 10
457.957918734122
 20
-11.449837779222
 10
466.480048856638
 20
-19.753290168646
 10
670.875905571828
 20
-180.267434687599
 10
700.291976509104
 20
-192.119007531119
 10
839.375374339908
 20
-206.113082378748
 10
890.408026948304
 20
-266.577330335467
 10
909.853868474861
 20
-349.073064365702
 10
908.946318094885
 20
-350.860625127036
 10
835.320550172421
 20
-391.353490208682
 10
577.898114788103
 20
-400.613266386011
 10
299.66972437303
 20
-359.546022408768
 10
296.387620227629
 20
-359.160624515445
 10
0.454071852391
 20
-333.279775042356
 10
-31.158024318139
 20
-339.696478213971
 10
-195.998500506183
 20
-427.145953477214
 10
-318.119135173043
 20
-430.891968893239
 10
-466.34932675744
 20
-368.082313650527
 10
-618.994239190155
 20
-234.1289912536
 10
-644.236199210625
 20
-221.376255498507
 10
-757.563474281089
 20
-196.585914076843
  0
LWPOLYLINE
  5
22
100
AcDbEntity
  8
Pit Shell
 62
     7
370
     0
420
 16777215
430

440
 33554687
100
AcDbPolyline
 90
       33
 70
     1
 38
-96.0
 10
-768.449449049229
 20
-109.551576884657
 10
-768.731581283609
 20
-108.326179076424
 10
-779.445323306739
 20
-63.93562898414
 10
-775.913320399333
 20
-8.580004968775
 10
-769.058596522529
 20
4.150196516718
 10
-717.451971116025
 20
30.213587804912
 10
-652.163223329255
 20
37.014649979571
 10
-477.203727430463
 20
12.772732918507
 10
-449.653066886791
 20
15.341940905495
 10
-269.263432055206
 20
75.852926900177
 10
-269.006225444555
 20
75.939856856608
 10
-36.022739301184
 20
155.273567235225
 10
165.132597862437
 20
176.824785862191
 10
329.155907501874
 20
131.525328796592
 10
452.069125940938
 20
-16.881648254425
 10
461.203117477424
 20
-25.781261702972
 10
666.830284254648
 20
-187.26236653326
 10
698.358334063207
 20
-199.964844023099
 10
835.351271170666
 20
-213.74858417741
 10
883.060408454213
 20
-270.27508160739
 10
900.941584798276
 20
-346.132984995782
 10
833.132022979002
 20
-383.427039991379
 10
578.342092085354
 20
-392.592122004491
 10
300.720528699583
 20
-351.614447296678
 10
297.202780078644
 20
-351.201379079556
 10
-0.002511590348
 20
-325.209309378363
 10
-33.884254150142
 20
-332.086711109981
 10
-198.103786547371
 20
-419.206769655131
 10
-316.612120588531
 20
-422.841978786303
 10
-462.041378623698
 20
-361.219164555564
 10
-614.480599035137
 20
-227.446346894768
 10
-641.534850246592
 20
-213.77800590731
 10
-750.846398674857
 20
-189.866104688627
  0
LWPOLYLINE
  5
23
100
AcDbEntity
  8
Pit Shell
 62
     7
370
     0
420
 16777215
430

440
 33554687
100
AcDbPolyline
 90
       33
 70
     1
 38
-108.0
 10
-761.689699123581
 20
-108.032659074818
 10
-761.98819861117
 20
-106.736172628828
 10
-772.464382718126
 20
-63.329902963961
 10
-769.095567252766
 20
-10.531848385202
 10
-763.991127851707
 20
-1.052175211806
 10
-715.466410781724
 20
23.454730213258
 10
-652.281463308499
 20
30.036641657959
 10
-477.359580296644
 20
5.79993613732
 10
-448.210631495918
 20
8.518190821356
 10
-267.052589955616
 20
69.286935792227
 10
-266.780462094533
 20
69.378908790308
 10
-34.518741197919
 20
148.466849324909
 10
164.559396364915
 20
169.795522612738
 10
325.210468198464
 20
125.427399892474
 10
446.969281784418
 20
-21.585734114494
 10
456.633160848996
 20
-31.001638184987
 10
663.326673419878
 20
-193.320155209344
 10
696.683750583225
 20
-206.759537739093
 10
831.866295598652
 20
-220.361122705692
 10
876.697184181014
 20
-273.477428145751
 10
892.990487950217
 20
-342.599047407247
 10
831.236702832627
 20
-376.562532741362
 10
578.726587703478
 20
-385.645607202672
 10
301.630551940786
 20
-344.745501757585
 10
297.908729217768
 20
-344.308470337122
 10
-0.397924450708
 20
-318.220081092975
 10
-36.245238441211
 20
-325.496459481042
 10
-199.927017741271
 20
-412.331234779892
 10
-315.30700767447
 20
-415.870482853484
 10
-458.310586101692
 20
-355.275503089366
 10
-610.57167199735
 20
-221.659007115563
 10
-639.195413419252
 20
-207.197728737038
 10
-745.029240560719
 20
-184.046579049843
  0
LWPOLYLINE
  5
24
100
AcDbEntity
  8
Pit Shell
 62
     7
370
     0
420
 16777215
430

440
 33554687
100
AcDbPolyline
 90
       33
 70
     1
 38
-108.0
 10
-753.884212245127
 20
-106.278763862039
 10
-754.201611008806
 20
-104.900191327767
 10
-764.40348686206
 20
-62.630470802349
 10
-761.22310402389
 20
-12.785643028983
 10
-758.139719049289
 20
-7.059356647582
 10
-713.173683194721
 20
15.650273713346
 10
-652.41799507619
 20
21.979131692179
 10
-477.53954368513
 20
-2.251556059926
 10
-446.545050573499
 20
0.638802925435
 10
-264.499729392951
 20
61.705182324883
 10
-264.21037195595
 20
61.802978525874
 10
-32.782073778358
 20
140.607128489272
 10
163.897520287127
 20
161.678828554184
 10
320.654667310674
 20
118.386118103891
 10
441.080488991235
 20
-27.017544589697
 10
451.356229469781
 20
-37.029609719313
 10
659.281052102698
 20
-200.315087055005
 10
694.750108137327
 20
-214.605374231074
 10
827.842192429409
 20
-227.996624504354
 10
869.349565686923
 20
-277.175179417674
 10
883.809352139059
 20
-338.518407771167
 10
829.048175639208
 20
-368.636082524059
 10
579.170565000729
 20
-377.624462821152
 10
302.681356267339
 20
-336.813926645496
 10
298.723889068784
 20
-336.349224901233
 10
-0.854507893447
 20
-310.149615428982
 10
-38.971468273214
 20
-317.886692377052
 10
-202.032303782458
 20
-404.392050957809
 10
-313.799993089958
 20
-407.820492746549
 10
-454.00263796795
 20
-348.412353994403
 10
-606.058031842332
 20
-214.976362756731
 10
-636.494064455219
 20
-199.599479145841
 10
-738.312164954487
 20
-177.326769661626
  0
LWPOLYLINE
  5
25
100
AcDbEntity
  8
Pit Shell
 62
     7
370
     0
420
 16777215
430

440
 33554687
100
AcDbPolyline
 90
       33
 70
     1
 38
-120.0
 10
-747.124462319481
 20
-104.75984605219
 10
-747.458228336364
 20
-103.310184880182
 10
-757.422546273447
 20
-62.02474478217
 10
-754.405350877323
 20
-14.737486445411
 10
-753.072250378467
 20
-12.261728376106
 10
-711.18812286042
 20
8.891416121691
 10
-652.536235055434
 20
15.001123370567
 10
-477.69539655131
 20
-9.224352841114
 10
-445.102615182625
 20
-6.184947158705
 10
-262.288887293355
 20
55.139191216935
 10
-261.984608605934
 20
55.242030459572
 10
-31.278075675094
 20
133.800410578956
 10
163.324318789606
 20
154.649565304731
 10
316.709228007263
 20
112.288189199773
 10
435.980644834716
 20
-31.721630449766
 10
446.786272841354
 20
-42.249986201328
 10
655.777441267929
 20
-206.372875731089
 10
693.075524657345
 20
-221.400067947068
 10
824.357216857395
 20
-234.609163032636
 10
862.986341413724
 20
-280.377525956035
 10
875.858255291
 20
-334.984470182632
 10
827.152855492833
 20
-361.771575274042
 10
579.555060618852
 20
-370.677948019333
 10
303.591379508543
 20
-329.944981106402
 10
299.429838207906
 20
-329.456316158798
 10
-1.249920753806
 20
-303.160387143594
 10
-41.332452564283
 20
-311.296440748114
 10
-203.855534976359
 20
-397.51651608257
 10
-312.494880175897
 20
-400.84899681373
 10
-450.271845445944
 20
-342.468692528206
 10
-602.149104804545
 20
-209.189022977526
 10
-634.15462762788
 20
-193.019201975569
 10
-732.495006840349
 20
-171.507244022842
  0
LWPOLYLINE
  5
26
100
AcDbEntity
  8
Pit Shell
 62
     7
370
     0
420
 16777215
430

440
 33554687
100
AcDbPolyline
 90
       32
 70
     1
 38
-120.0
 10
-739.318975441026
 20
-103.005950839412
 10
-739.671640734001
 20
-101.47420357912
 10
-749.361650417381
 20
-61.325312620558
 10
-746.594214946738
 20
-17.952438527378
 10
-708.895395273417
 20
1.086959621779
 10
-652.672766823125
 20
6.943613404786
 10
-477.875359939797
 20
-17.27584503836
 10
-443.437034260206
 20
-14.064335054626
 10
-259.736026730683
 20
47.557437749594
 10
-259.414518467372
 20
47.666100195131
 10
-29.541408255533
 20
125.940689743318
 10
162.662442711818
 20
146.532871246177
 10
312.153427119473
 20
105.24690741119
 10
430.091852041532
 20
-37.153440924969
 10
441.509341462139
 20
-48.277957735653
 10
651.731819950749
 20
-213.36780757675
 10
691.141882211448
 20
-229.245904439049
 10
820.333113688152
 20
-242.244664831298
 10
855.638722919633
 20
-284.075277227958
 10
866.677119479842
 20
-330.903830546552
 10
824.964328299414
 20
-353.845125056739
 10
579.999037916104
 20
-362.656803637813
 10
304.642183835095
 20
-322.013405994313
 10
300.244998058921
 20
-321.49707072291
 10
-1.706504196545
 20
-295.089921479601
 10
-44.058682396286
 20
-303.686673644124
 10
-205.960821017546
 20
-389.577332260487
 10
-310.987865591385
 20
-392.799006706794
 10
-445.963897312202
 20
-335.605543433243
 10
-597.635464649527
 20
-202.506378618694
 10
-631.453278663846
 20
-185.420952384372
 10
-725.777931234117
 20
-164.787434634625
  0
LWPOLYLINE
  5
27
100
AcDbEntity
  8
Pit Shell
 62
     7
370
     0
420
 16777215
430

440
 33554687
100
AcDbPolyline
 90
       32
 70
     1
 38
-132.0
 10
-732.559225515378
 20
-101.487033029573
 10
-732.928258061559
 20
-99.884197131535
 10
-742.380709828768
 20
-60.719586600379
 10
-739.932490007634
 20
-22.349647651167
 10
-706.909834939116
 20
-5.671897969875
 10
-652.791006802368
 20
-0.034394916826
 10
-478.031212805977
 20
-24.248641819547
 10
-441.994598869333
 20
-20.888085138765
 10
-257.525184631079
 20
40.991446641648
 10
-257.188755117345
 20
41.105152128833
 10
-28.037410152269
 20
119.133971833002
 10
162.089241214297
 20
139.503607996724
 10
308.207987816063
 20
99.148978507072
 10
424.992007885012
 20
-41.857526785038
 10
436.939384833712
 20
-53.498334217668
 10
648.228209115979
 20
-219.425596252834
 10
689.467298731465
 20
-236.040598155043
 10
816.848138116138
 20
-248.85720335958
 10
849.275498646433
 20
-287.27762376632
 10
858.726022631783
 20
-327.369892958017
 10
823.06900815304
 20
-346.980617806722
 10
580.383533534227
 20
-355.710288835994
 10
305.552207076297
 20
-315.144460455219
 10
300.950947198045
 20
-314.604161980475
 10
-2.101917056904
 20
-288.100693194214
 10
-46.419666687356
 20
-297.096422015185
 10
-207.784052211447
 20
-382.701797385248
 10
-309.682752677324
 20
-385.827510773975
 10
-442.233104790195
 20
-329.661881967045
 10
-593.726537611741
 20
-196.719038839489
 10
-629.113841836507
 20
-178.8406752141
 10
-719.960773119979
 20
-158.967908995841
  0
LWPOLYLINE
  5
28
100
AcDbEntity
  8
Pit Shell
 62
     7
370
     0
420
 16777215
430

440
 33554687
100
AcDbPolyline
 90
       32
 70
     1
 38
-132.0
 10
-724.753738636924
 20
-99.733137816794
 10
-725.141670459195
 20
-98.048215830474
 10
-734.319813972702
 20
-60.020154438767
 10
-732.240192633916
 20
-27.427107393772
 10
-704.617107352113
 20
-13.476354469787
 10
-652.927538570059
 20
-8.091904882606
 10
-478.211176194463
 20
-32.300134016794
 10
-440.329017946914
 20
-28.767473034686
 10
-254.972324068418
 20
33.409693174303
 10
-254.618664978768
 20
33.529221864397
 10
-26.300742732708
 20
111.274250997364
 10
161.427365136509
 20
131.38691393817
 10
303.652186928272
 20
92.107696718489
 10
419.103215091829
 20
-47.289337260242
 10
431.662453454497
 20
-59.526305751993
 10
644.182587798799
 20
-226.420528098495
 10
687.533656285568
 20
-243.886434647023
 10
812.824034946896
 20
-256.492705158241
 10
841.927880152342
 20
-290.975375038242
 10
849.544886820625
 20
-323.289253321937
 10
820.88048095962
 20
-339.054167589419
 10
580.827510831478
 20
-347.689144454474
 10
306.60301140285
 20
-307.21288534313
 10
301.766107049061
 20
-306.644916544587
 10
-2.558500499643
 20
-280.030227530221
 10
-49.145896519359
 20
-289.486654911195
 10
-209.889338252634
 20
-374.762613563165
 10
-308.175738092813
 20
-377.77752066704
 10
-437.925156656453
 20
-322.798732872082
 10
-589.212897456723
 20
-190.036394480658
 10
-626.412492872473
 20
-171.242425622903
 10
-713.243697513747
 20
-152.248099607625
  0
LWPOLYLINE
  5
29
100
AcDbEntity
  8
Pit Shell
 62
     7
370
     0
420
 16777215
430

440
 33554687
100
AcDbPolyline
 90
       17
 70
     1
 38
-132.0
 10
-87.335430607178
 20
43.048130945222
 10
-14.343932648093
 20
66.320510248183
 10
160.204547082784
 20
83.247926089852
 10
279.744560286904
 20
53.626826686487
 10
380.242169828924
 20
-61.683210876772
 10
385.531517699556
 20
-136.789696656287
 10
348.506082605128
 20
-190.742547592385
 10
248.008473063108
 20
-204.495603383852
 10
61.821925361195
 20
-192.857535412816
 10
-54.543727792723
 20
-181.219467441779
 10
-112.726554369682
 20
-193.916907642587
 10
-185.718052328767
 20
-229.882970507244
 10
-264.002654797597
 20
-220.36364699575
 10
-301.028089892026
 20
-173.815131750715
 10
-327.474829245189
 20
-106.112981662263
 10
-319.011121324354
 20
-42.640807214672
 10
-283.041301820585
 20
-16.194067861509
  0
LWPOLYLINE
  5
2A
100
AcDbEntity
  8
Pit Shell
 62
     7
370
     0
420
 16777215
430

440
 33554687
100
AcDbPolyline
 90
       20
 70
     1
 38
-144.0
 10
-85.30376443115
 20
36.42446267525
 10
-85.255116098379
 20
36.439580397187
 10
-12.941573629138
 20
59.495802507169
 10
159.691080814935
 20
76.237424858344
 10
275.957270106991
 20
47.427553937635
 10
373.494148063514
 20
-64.485367297243
 10
378.450519473921
 20
-134.863729234939
 10
344.528676879057
 20
-184.294076571327
 10
247.752388084322
 20
-197.537871176497
 10
62.38296585461
 20
-185.950879730074
 10
-54.397483263548
 20
-174.27132680626
 10
-55.487544341966
 20
-174.334174704746
 10
-114.615402771561
 20
-187.237852487031
 10
-115.410862098988
 20
-187.515968799681
 10
-186.929717050017
 20
-222.756396864589
 10
-260.347936221245
 20
-213.828820331171
 10
-294.955175364227
 20
-170.320470065273
 10
-320.371160416361
 20
-105.256992421871
 10
-312.533161652821
 20
-46.477220069993
 10
-279.895575032975
 20
-22.480498419475
  0
LWPOLYLINE
  5
2B
100
AcDbEntity
  8
Pit Shell
 62
     7
370
     0
420
 16777215
430

440
 33554687
100
AcDbPolyline
 90
       20
 70
     1
 38
-144.0
 10
-82.957798403883
 20
28.776109357868
 10
-82.852975815072
 20
28.808683521465
 10
-11.322268914951
 20
51.615308804339
 10
159.09818103901
 20
68.142395312013
 10
271.584084097247
 20
40.269250356977
 10
365.702203698001
 20
-67.721018824585
 10
370.274087010518
 20
-132.639813616606
 10
339.93596434581
 20
-176.848023611588
 10
247.456686621446
 20
-189.503774050766
 10
63.030799614409
 20
-177.975760694812
 10
-54.228614626974
 20
-166.248305073692
 10
-56.577369819508
 20
-166.383723474396
 10
-116.796457038128
 20
-179.525543903046
 10
-118.510433679192
 20
-180.124801271644
 10
-188.32882695598
 20
-214.527338442615
 10
-256.127830713507
 20
-206.283052463366
 10
-287.942777689447
 20
-166.285182335639
 10
-312.168550195246
 20
-104.268581185142
 10
-305.053058132502
 20
-50.907128059478
 10
-276.263202617729
 20
-29.739443169243
  0
LWPOLYLINE
  5
2C
100
AcDbEntity
  8
Pit Shell
 62
     7
370
     0
420
 16777215
430

440
 33554687
100
AcDbPolyline
 90
       20
 70
     1
 38
-156.0
 10
-80.926132227854
 20
22.152441087896
 10
-80.772661306273
 20
22.20013297343
 10
-9.919909895997
 20
44.790601063325
 10
158.584714771161
 20
61.131894080504
 10
267.796793917334
 20
34.069977608125
 10
358.954181932591
 20
-70.523175245057
 10
363.193088784883
 20
-130.713846195258
 10
335.958558619739
 20
-170.39955259053
 10
247.20060164266
 20
-182.546041843411
 10
63.591840107825
 20
-171.069105012071
 10
-54.082370097799
 20
-159.300164438174
 10
-57.52118636875
 20
-159.498430737364
 10
-118.685305440008
 20
-172.846488747491
 10
-121.194741408498
 20
-173.723862428738
 10
-189.540491677231
 20
-207.40076479996
 10
-252.473112137156
 20
-199.748225798787
 10
-281.869863161649
 20
-162.790520650197
 10
-305.064881366418
 20
-103.41259194475
 10
-298.575098460968
 20
-54.743540914799
 10
-273.11747583012
 20
-36.025873727209
  0
LWPOLYLINE
  5
2D
100
AcDbEntity
  8
Pit Shell
 62
     7
370
     0
420
 16777215
430

440
 33554687
100
AcDbPolyline
 90
       20
 70
     1
 38
-156.0
 10
-78.580166200587
 20
14.504087770514
 10
-78.370521022965
 20
14.569236097707
 10
-8.30060518181
 20
36.910107360495
 10
157.991814995236
 20
53.036864534173
 10
263.42360790759
 20
26.911674027466
 10
351.162237567078
 20
-73.758826772399
 10
355.01665632148
 20
-128.489930576926
 10
331.365846086492
 20
-162.953499630791
 10
246.904900179784
 20
-174.51194471768
 10
64.239673867624
 20
-163.093985976809
 10
-53.913501461226
 20
-151.277142705606
 10
-58.611011846292
 20
-151.547979507013
 10
-120.866359706575
 20
-165.134180163506
 10
-124.294312988703
 20
-166.332694900701
 10
-190.939601583194
 20
-199.171706377987
 10
-248.253006629417
 20
-192.202457930982
 10
-274.857465486869
 20
-158.755232920564
 10
-296.862271145303
 20
-102.424180708021
 10
-291.09499494065
 20
-59.173448904284
 10
-269.485103414874
 20
-43.284818476977
  0
LWPOLYLINE
  5
2E
100
AcDbEntity
  8
Pit Shell
 62
     7
370
     0
420
 16777215
430

440
 33554687
100
AcDbPolyline
 90
       20
 70
     1
 38
-168.0
 10
-76.548500024559
 20
7.880419500542
 10
-76.290206514167
 20
7.960685549672
 10
-6.898246162855
 20
30.085399619481
 10
157.478348727386
 20
46.026363302664
 10
259.636317727677
 20
20.712401278614
 10
344.414215801668
 20
-76.56098319287
 10
347.935658095845
 20
-126.563963155577
 10
327.388440360421
 20
-156.505028609733
 10
246.648815200998
 20
-167.554212510325
 10
64.80071436104
 20
-156.187330294067
 10
-53.76725693205
 20
-144.329002070087
 10
-59.554828395535
 20
-144.662686769981
 10
-122.755208108454
 20
-158.45512500795
 10
-126.978620718009
 20
-159.931756057795
 10
-192.151266304445
 20
-192.045132735331
 10
-244.598288053066
 20
-185.667631266403
 10
-268.784550959071
 20
-155.260571235121
 10
-289.758602316475
 20
-101.568191467629
 10
-284.617035269116
 20
-63.009861759605
 10
-266.339376627264
 20
-49.571249034944
  0
LWPOLYLINE
  5
2F
100
AcDbEntity
  8
Pit Shell
 62
     7
370
     0
420
 16777215
430

440
 33554687
100
AcDbPolyline
 90
       20
 70
     1
 38
-168.0
 10
-74.202533997293
 20
0.23206618316
 10
-73.88806623086
 20
0.32978867395
 10
-5.278941448668
 20
22.204905916651
 10
156.885448951461
 20
37.931333756333
 10
255.263131717933
 20
13.554097697955
 10
336.622271436155
 20
-79.796634720212
 10
339.759225632442
 20
-124.340047537245
 10
322.795727827175
 20
-149.058975649994
 10
246.353113738123
 20
-159.520115384594
 10
65.448548120839
 20
-148.212211258805
 10
-53.598388295477
 20
-136.30598033752
 10
-60.644653873077
 20
-136.712235539631
 10
-124.936262375021
 20
-150.742816423965
 10
-130.078192298214
 20
-152.540588529758
 10
-193.550376210408
 20
-183.816074313358
 10
-240.378182545328
 20
-178.121863398598
 10
-261.772153284291
 20
-151.225283505488
 10
-281.55599209536
 20
-100.579780230901
 10
-277.136931748798
 20
-67.43976974909
 10
-262.707004212018
 20
-56.830193784711
  0
LWPOLYLINE
  5
30
100
AcDbEntity
  8
Pit Shell
 62
     7
370
     0
420
 16777215
430

440
 33554687
100
AcDbPolyline
 90
       20
 70
     1
 38
-180.0
 10
-72.170867821264
 20
-6.391602086812
 10
-71.807751722062
 20
-6.278761874085
 10
-3.876582429714
 20
15.380198175637
 10
156.371982683612
 20
30.920832524824
 10
251.47584153802
 20
7.354824949104
 10
329.874249670745
 20
-82.598791140684
 10
332.678227406808
 20
-122.414080115896
 10
318.818322101104
 20
-142.610504628936
 10
246.097028759336
 20
-152.562383177239
 10
66.009588614254
 20
-141.305555576064
 10
-53.452143766302
 20
-129.357839702001
 10
-61.58847042232
 20
-129.826942802598
 10
-126.825110776901
 20
-144.06376126841
 10
-132.762500027519
 20
-146.139649686852
 10
-194.762040931658
 20
-176.689500670703
 10
-236.723463968976
 20
-171.587036734018
 10
-255.699238756493
 20
-147.730621820045
 10
-274.452323266533
 20
-99.723790990508
 10
-270.658972077264
 20
-71.276182604412
 10
-259.561277424409
 20
-63.116624342678
  0
LWPOLYLINE
  5
31
100
AcDbEntity
  8
Pit Shell
 62
     7
370
     0
420
 16777215
430

440
 33554687
100
AcDbPolyline
 90
       20
 70
     1
 38
-180.0
 10
-69.824901793997
 20
-14.039955404194
 10
-69.405611438754
 20
-13.909658749808
 10
-2.257277715527
 20
7.499704472807
 10
155.779082907687
 20
22.825802978493
 10
247.102655528276
 20
0.196521368445
 10
322.082305305232
 20
-85.834442668026
 10
324.501794943404
 20
-120.190164497564
 10
314.225609567857
 20
-135.164451669197
 10
245.801327296461
 20
-144.528286051508
 10
66.657422374054
 20
-133.330436540802
 10
-53.283275129728
 20
-121.334817969433
 10
-62.678295899862
 20
-121.876491572248
 10
-129.006165043468
 20
-136.351452684425
 10
-135.862071607724
 20
-138.748482158815
 10
-196.161150837621
 20
-168.460442248729
 10
-232.503358461238
 20
-164.041268866214
 10
-248.686841081713
 20
-143.695334090412
 10
-266.249713045417
 20
-98.73537975378
 10
-263.178868556946
 20
-75.706090593896
 10
-255.928905009163
 20
-70.375569092445
  0
LWPOLYLINE
  5
32
100
AcDbEntity
  8
Pit Shell
 62
     7
370
     0
420
 16777215
430

440
 33554687
100
AcDbPolyline
 90
       20
 70
     1
 38
-192.0
 10
-67.793235617969
 20
-20.663623674166
 10
-67.325296929955
 20
-20.518209297842
 10
-0.854918696572
 20
0.674996731793
 10
155.265616639838
 20
15.815301746984
 10
243.315365348363
 20
-6.002751380407
 10
315.334283539822
 20
-88.636599088497
 10
317.42079671777
 20
-118.264197076216
 10
310.248203841786
 20
-128.715980648139
 10
245.545242317674
 20
-137.570553844153
 10
67.21846286747
 20
-126.42378085806
 10
-53.137030600553
 20
-114.386677333915
 10
-63.622112449104
 20
-114.991198835216
 10
-130.895013445347
 20
-129.672397528869
 10
-138.54637933703
 20
-132.347543315909
 10
-197.372815558872
 20
-161.333868606074
 10
-228.848639884886
 20
-157.506442201634
 10
-242.613926553914
 20
-140.200672404969
 10
-259.14604421659
 20
-97.879390513387
 10
-256.700908885412
 20
-79.542503449218
 10
-252.783178221553
 20
-76.661999650412
  0
LWPOLYLINE
  5
33
100
AcDbEntity
  8
Pit Shell
 62
     7
370
     0
420
 16777215
430

440
 33554687
100
AcDbPolyline
 90
       20
 70
     1
 38
-192.0
 10
-65.447269590702
 20
-28.311976991548
 10
-64.923156646648
 20
-28.149106173565
 10
0.764386017615
 20
-7.205496971037
 10
154.672716863913
 20
7.720272200653
 10
238.942179338619
 20
-13.161054961066
 10
307.542339174309
 20
-91.872250615839
 10
309.244364254367
 20
-116.040281457884
 10
305.655491308539
 20
-121.2699276884
 10
245.249540854799
 20
-129.536456718422
 10
67.866296627269
 20
-118.448661822799
 10
-52.96816196398
 20
-106.363655601347
 10
-64.711937926646
 20
-107.040747604866
 10
-133.076067711914
 20
-121.960088944884
 10
-141.645950917235
 20
-124.956375787872
 10
-198.771925464835
 20
-153.104810184101
 10
-224.628534377148
 20
-149.960674333829
 10
-235.601528879135
 20
-136.165384675336
 10
-250.943433995475
 20
-96.890979276659
 10
-249.220805365094
 20
-83.972411438703
 10
-249.150805806307
 20
-83.92094440018
  0
POLYLINE
  5
4F
100
AcDbEntity
  8
Haul Road
 62
    53
370
     0
420
 12839787
430

440
 33554687
100
AcDb3dPolyline
 10
0.0
 20
0.0
 30
0.0
 70
     9
  0
VERTEX
  5
34
100
AcDbEntity
  8
0
370
     0
430

440
        0
100
AcDbVertex
100
AcDb3dPolylineVertex
 10
-128.673574389338
 20
301.28782195544
 30
0.0
 70
    32
 50
0.0
  0
VERTEX
  5
35
100
AcDbEntity
  8
0
370
     0
430

440
        0
100
AcDbVertex
100
AcDb3dPolylineVertex
 10
-470.916503293056
 20
86.603660979235
 30
-84.0
 70
    32
 50
0.0
  0
VERTEX
  5
36
100
AcDbEntity
  8
0
370
     0
430

440
        0
100
AcDbVertex
100
AcDb3dPolylineVertex
 10
-484.991263485652
 20
77.494724119155
 30
-84.0
 70
    32
 50
0.0
  0
VERTEX
  5
37
100
AcDbEntity
  8
0
370
     0
430

440
        0
100
AcDbVertex
100
AcDb3dPolylineVertex
 10
-509.823136095505
 20
58.314251490936
 30
-84.0
 70
    32
 50
0.0
  0
VERTEX
  5
38
100
AcDbEntity
  8
0
370
     0
430

440
        0
100
AcDbVertex
100
AcDb3dPolylineVertex
 10
-520.058981658943
 20
15.503496701392
 30
-84.0
 70
    32
 50
0.0
  0
VERTEX
  5
39
100
AcDbEntity
  8
0
370
     0
430

440
        0
100
AcDbVertex
100
AcDb3dPolylineVertex
 10
-509.474036975002
 20
-19.107367043971
 30
-84.0
 70
    32
 50
0.0
  0
VERTEX
  5
3A
100
AcDbEntity
  8
0
370
     0
430

440
        0
100
AcDbVertex
100
AcDb3dPolylineVertex
 10
-437.09098329212
 20
-147.103830975613
 30
-132.0
 70
    32
 50
0.0
  0
VERTEX
  5
3B
100
AcDbEntity
  8
0
370
     0
430

440
        0
100
AcDbVertex
100
AcDb3dPolylineVertex
 10
-427.716283754735
 20
-159.01414636337
 30
-132.0
 70
    32
 50
0.0
  0
VERTEX
  5
3C
100
AcDbEntity
  8
0
370
     0
430

440
        0
100
AcDbVertex
100
AcDb3dPolylineVertex
 10
-307.725820005392
 20
-271.202694476324
 30
-132.0
 70
    32
 50
0.0
  0
VERTEX
  5
3D
100
AcDbEntity
  8
0
370
     0
430

440
        0
100
AcDbVertex
100
AcDb3dPolylineVertex
 10
-274.703001485219
 20
-277.55288957007
 30
-132.0
 70
    32
 50
0.0
  0
VERTEX
  5
3E
100
AcDbEntity
  8
0
370
     0
430

440
        0
100
AcDbVertex
100
AcDb3dPolylineVertex
 10
-243.93575352515
 20
-273.028105245046
 30
-132.0
 70
    32
 50
0.0
  0
VERTEX
  5
3F
100
AcDbEntity
  8
0
370
     0
430

440
        0
100
AcDbVertex
100
AcDb3dPolylineVertex
 10
35.845057014143
 20
-123.530460303823
 30
-210.310515795615
 70
    32
 50
0.0
  0
VERTEX
  5
40
100
AcDbEntity
  8
0
370
     0
430

440
        0
100
AcDbVertex
100
AcDb3dPolylineVertex
 10
-53.137030600553
 20
-114.386677333915
 30
-192.0
 70
    32
 50
0.0
  0
VERTEX
  5
41
100
AcDbEntity
  8
0
370
     0
430

440
        0
100
AcDbVertex
100
AcDb3dPolylineVertex
 10
-259.822520583222
 20
-224.826681908825
 30
-132.0
 70
    32
 50
0.0
  0
VERTEX
  5
42
100
AcDbEntity
  8
0
370
     0
430

440
        0
100
AcDbVertex
100
AcDb3dPolylineVertex
 10
-273.588400896476
 20
-226.851160651364
 30
-132.0
 70
    32
 50
0.0
  0
VERTEX
  5
43
100
AcDbEntity
  8
0
370
     0
430

440
        0
100
AcDbVertex
100
AcDb3dPolylineVertex
 10
-284.116265493682
 20
-224.826681908825
 30
-132.0
 70
    32
 50
0.0
  0
VERTEX
  5
44
100
AcDbEntity
  8
0
370
     0
430

440
        0
100
AcDbVertex
100
AcDb3dPolylineVertex
 10
-393.568264706738
 20
-122.491375451271
 30
-132.0
 70
    32
 50
0.0
  0
VERTEX
  5
45
100
AcDbEntity
  8
0
370
     0
430

440
        0
100
AcDbVertex
100
AcDb3dPolylineVertex
 10
-463.259411722612
 20
0.744933760722
 30
-84.0
 70
    32
 50
0.0
  0
VERTEX
  5
46
100
AcDbEntity
  8
0
370
     0
430

440
        0
100
AcDbVertex
100
AcDb3dPolylineVertex
 10
-468.26501209834
 20
17.112345942941
 30
-84.0
 70
    32
 50
0.0
  0
VERTEX
  5
47
100
AcDbEntity
  8
0
370
     0
430

440
        0
100
AcDbVertex
100
AcDb3dPolylineVertex
 10
-465.29635174529
 20
29.528573761171
 30
-84.0
 70
    32
 50
0.0
  0
VERTEX
  5
48
100
AcDbEntity
  8
0
370
     0
430

440
        0
100
AcDbVertex
100
AcDb3dPolylineVertex
 10
-454.426664122502
 20
37.924466781476
 30
-84.0
 70
    32
 50
0.0
  0
VERTEX
  5
49
100
AcDbEntity
  8
0
370
     0
430

440
        0
100
AcDbVertex
100
AcDb3dPolylineVertex
 10
-102.104038287577
 20
258.931479439387
 30
0.0
 70
    32
 50
0.0
  0
VERTEX
  5
4A
100
AcDbEntity
  8
0
370
     0
430

440
        0
100
AcDbVertex
100
AcDb3dPolylineVertex
 10
-61.948063483786
 20
272.605077202855
 30
0.0
 70
    32
 50
0.0
  0
VERTEX
  5
4B
100
AcDbEntity
  8
0
370
     0
430

440
        0
100
AcDbVertex
100
AcDb3dPolylineVertex
 10
175.01321846491
 20
297.992444326247
 30
0.0
 70
    32
 50
0.0
  0
VERTEX
  5
4C
100
AcDbEntity
  8
0
370
     0
430

440
        0
100
AcDbVertex
100
AcDb3dPolylineVertex
 10
169.686840573941
 20
347.707931838315
 30
0.0
 70
    32
 50
0.0
  0
VERTEX
  5
4D
100
AcDbEntity
  8
0
370
     0
430

440
        0
100
AcDbVertex
100
AcDb3dPolylineVertex
 10
-72.802234856041
 20
321.728332425591
 30
0.0
 70
    32
 50
0.0
  0
VERTEX
  5
4E
100
AcDbEntity
  8
0
370
     0
430

440
        0
100
AcDbVertex
100
AcDb3dPolylineVertex
 10
-118.220902569465
 20
306.262723726002
 30
0.0
 70
    32
 50
0.0
  0
SEQEND
  5
50
  0
ENDSEC
  0
SECTION
  2
OBJECTS
  0
ENDSEC
  0
EOF
